<mxfile host="app.diagrams.net" modified="2024-02-23T12:56:36.792Z" agent="Mozilla/5.0 (Windows NT 10.0; Win64; x64) AppleWebKit/537.36 (KHTML, like Gecko) Chrome/119.0.0.0 Safari/537.36" version="23.1.6" etag="BSTnl8E__JAry1M1ky6g" type="github">
  <diagram name="PÃ¡gina-1" id="5esr4Wh3WphQpzTkeDJj">
    <mxGraphModel>
      <root>
        <mxCell id="0" />
        <mxCell id="1" parent="0" />
      </root>
    </mxGraphModel>
  </diagram>
</mxfile>
